Coordinates
version=1
nRows=4
nColumns=63
inDegrees=yes

Units are S.I. units (second, meters, Newtons, ...)
If the header above contains a line with 'inDegrees', this indicates whether rotational values are in degrees (yes) or radians (no).

endheader
time	pelvis_tilt	pelvis_list	pelvis_rotation	pelvis_tx	pelvis_ty	pelvis_tz	hip_flexion_r	hip_adduction_r	hip_rotation_r	knee_angle_r	knee_angle_r_beta	ankle_angle_r	subtalar_angle_r	mtp_angle_r	hip_flexion_l	hip_adduction_l	hip_rotation_l	knee_angle_l	knee_angle_l_beta	ankle_angle_l	subtalar_angle_l	mtp_angle_l	L5_S1_Flex_Ext	L5_S1_Lat_Bending	L5_S1_axial_rotation	L4_L5_Flex_Ext	L4_L5_Lat_Bending	L4_L5_axial_rotation	L3_L4_Flex_Ext	L3_L4_Lat_Bending	L3_L4_axial_rotation	L2_L3_Flex_Ext	L2_L3_Lat_Bending	L2_L3_axial_rotation	L1_L2_Flex_Ext	L1_L2_Lat_Bending	L1_L2_axial_rotation	L1_T12_Flex_Ext	L1_T12_Lat_Bending	L1_T12_axial_rotation	Abs_r3	Abs_r2	Abs_r1	Abs_t1	Abs_t2	neck_flexion	neck_bending	neck_rotation	arm_flex_r	arm_add_r	arm_rot_r	elbow_flex_r	pro_sup_r	wrist_flex_r	wrist_dev_r	arm_flex_l	arm_add_l	arm_rot_l	elbow_flex_l	pro_sup_l	wrist_flex_l	wrist_dev_l
      3.92592593	     -0.90569714	    -10.99407072	     78.11218084	      0.10488936	      0.60297850	      0.90498705	     22.94694451	      1.62136496	      6.45069060	     27.62554492	      0.48215672	     41.89672706	     11.02286930	      0.00000000	     19.09296378	     -4.86946939	    -24.46012046	     25.79324388	      0.45017703	     46.83764910	     10.86738828	      0.00000000	     -0.02766139	     -0.88801773	     -1.32458424	     -0.05136997	     -1.18106359	     -1.40737076	     -0.04544490	     -2.15912632	     -1.40737076	     -0.03161421	     -2.15912632	     -1.15901121	     -0.02568637	     -1.81084576	     -1.07622470	     -0.01580572	     -1.37553947	     -0.99343818	     -0.19758257	    -10.04543422	     -7.36694019	      0.00000000	      0.00000000	     21.10621385	      2.97948472	    -14.17330128	     10.55652668	      0.09267875	     38.33374635	     44.19531187	     51.58284083	    -13.89408667	     -1.59888986	     16.86993237	     -0.71952717	     45.04464836	     35.86938625	     65.02631837	     -7.00758951	      3.60481631
      3.94444444	     -2.19095309	    -10.19689794	     75.40778811	      0.10956737	      0.60519758	      0.90383860	     22.52470565	      1.03541188	      8.52241454	     27.68501427	      0.48319465	     41.97134342	     11.67314807	      0.00000000	     17.53573172	     -3.85521063	    -26.52550125	     24.58215174	      0.42903949	     46.26830998	     10.27826861	      0.00000000	     -0.03775495	     -1.08851873	     -0.93721931	     -0.07011472	     -1.44772991	     -0.99579552	     -0.06202761	     -2.64662445	     -0.99579552	     -0.04315013	     -2.64662445	     -0.82006690	     -0.03505925	     -2.21970740	     -0.76149069	     -0.02157318	     -1.68611552	     -0.70291448	     -0.26967985	    -12.31354161	     -5.21253264	      0.00000000	      0.00000000	     21.14581410	      2.84250770	    -17.03688581	      9.63148130	      0.16219081	     36.37729370	     45.39263687	     51.93622441	    -13.15257723	     -4.25977414	     17.84052338	     -1.67231108	     47.66504082	     37.85159732	     67.93865563	     -7.11366272	      3.13148443
      3.96296296	     -3.18504348	     -9.36781497	     72.94850864	      0.11367000	      0.60781343	      0.90226876	     21.83099610	      0.54072454	     10.40295613	     27.36466972	      0.47760359	     41.85923813	     12.29215808	      0.00000000	     15.94636386	     -2.85044669	    -28.14009390	     23.27570341	      0.40623766	     45.44520042	      9.33587643	      0.00000000	     -0.02966678	     -1.24861303	     -0.61611235	     -0.05509417	     -1.66065533	     -0.65461938	     -0.04873955	     -3.03587771	     -0.65461938	     -0.03390616	     -3.03587771	     -0.53909831	     -0.02754857	     -2.54617168	     -0.50059129	     -0.01695160	     -1.93410158	     -0.46208427	     -0.21190683	    -14.12456028	     -3.42663208	      0.00000000	      0.00000000	     21.17365101	      2.91250976	    -19.03757999	      8.32613699	     -0.17206903	     34.74602577	     47.08221197	     51.17464781	    -10.97386521	     -7.78990921	     18.55141481	     -2.51095904	     50.19551207	     40.14289617	     72.12642378	     -8.67553846	      1.56471907
      3.98148148	     -3.88053199	     -8.41593185	     70.82962518	      0.11736289	      0.61090016	      0.90050711	     20.71093307	      0.13875839	     12.25705697	     26.60399647	      0.46432733	     41.50469705	     12.46566653	      0.00000000	     14.25161749	     -1.96682211	    -29.73956533	     22.04501442	      0.38475809	     44.48807807	      8.64339613	      0.00000000	     -0.02017821	     -1.37401733	     -0.43009381	     -0.03747295	     -1.82744304	     -0.45697467	     -0.03315078	     -3.34078573	     -0.45697467	     -0.02306167	     -3.34078573	     -0.37633208	     -0.01873748	     -2.80189613	     -0.34945122	     -0.01152983	     -2.12835284	     -0.32257036	     -0.14413091	    -15.54315880	     -2.39205273	      0.00000000	      0.00000000	     20.88493451	      3.21403236	    -19.95352656	      7.08690139	     -0.90064441	     34.78730760	     49.40667083	     37.81777989	     -4.41992235	    -11.17186530	     18.52767271	     -3.21569723	     50.99668089	     43.06315665	     76.74752816	    -10.82597163	      0.94861500
